<svg xmlns="http://www.w3.org/2000/svg">
    <!--
    twemoji by twitter - https://github.com/twitter/twemoji
    Licensed under Attribution 4.0 International
    https://github.com/twitter/twemoji/blob/master/LICENSE-GRAPHICS
    -->
    <symbol id="bear" viewBox="0 0 36 36">
        <circle fill="#C1694F" cx="7" cy="6" r="6"/>
        <circle fill="#C1694F" cx="29" cy="6" r="6"/>
        <circle fill="#E6AAAA" cx="7" cy="6" r="4"/>
        <circle fill="#E6AAAA" cx="29" cy="6" r="4"/>
        <path fill="#C1694F"
              d="M35 22S33.692 0 18 0 1 22 1 22c0 5.872 4.499 10.323 12.216 11.61C14.311 35.06 16.044 36 18 36s3.688-.94 4.784-2.39C30.501 32.323 35 27.872 35 22z"/>
        <circle fill="#DD2E44" cx="18" cy="30" r="4"/>
        <path fill="#D99E82"
              d="M18 20S7 23.687 7 27s2.687 6 6 6c2.088 0 3.925-1.067 5-2.685C19.074 31.933 20.912 33 23 33c3.313 0 6-2.687 6-6s-11-7-11-7z"/>
        <path fill="#272B2B"
              d="M11 17s0-2 2-2 2 2 2 2v2s0 2-2 2-2-2-2-2v-2zm10 0s0-2 2-2 2 2 2 2v2s0 2-2 2-2-2-2-2v-2zm-7.875 8c-1.624 1 3.25 4 4.875 4s6.499-3 4.874-4-8.124-1-9.749 0z"/>
    </symbol>
    <symbol id="boar" viewBox="0 0 36 36">
        <path fill="#C1694F"
              d="M33.359 13.254c1.434-3.462 2.06-11.534 1.262-12.004-.704-.416-5.641 1.084-8.34 3.205C23.883 2.909 21.085 2 18 2c-3.085 0-5.883.91-8.281 2.455C7.02 2.334 2.082.834 1.378 1.25c-.797.47-.171 8.543 1.263 12.004C1.59 15.818 1 18.623 1 21.479 1 31.468 2 36 18 36s17-4.532 17-14.521c0-2.856-.59-5.662-1.641-8.225z"/>
        <path fill="#662113"
              d="M32.878 12.157c.929-3.252 1.081-7.708.524-8.037-.411-.243-2.78.633-5.009 1.972 1.851 1.663 3.373 3.736 4.485 6.065zM7.607 6.092c-2.23-1.339-4.599-2.215-5.01-1.972-.557.329-.405 4.786.525 8.038 1.112-2.33 2.634-4.402 4.485-6.066z"/>
        <path fill="#E1E8ED"
              d="M7.65 29s-3.641-3-4.641-11.5c-.234-1.986 1.696-1.977 2 0C6.01 24 11.359 28 14 30c2.255 1.708-6.35-1-6.35-1zm20.7 0s3.641-3 4.641-11.5c.234-1.986-1.695-1.977-2 0C29.99 24 24.641 28 22 30c-2.255 1.708 6.35-1 6.35-1z"/>
        <path d="M29 29c0 1.104-3.82 3-11 3S7 30.104 7 29s3.82 1 11 1 11-2.104 11-1z"/>
        <path fill="#662113"
              d="M28 23.125c0 4.487-3.097 9.375-10 9.375-6.904 0-10-4.888-10-9.375S11.096 17.5 18 17.5c6.903 0 10 1.138 10 5.625z"/>
        <path fill="#C1694F"
              d="M15 24.6c0 1.857-.34 2.4-1.5 2.4s-1.5-.543-1.5-2.4c0-1.856.34-2.399 1.5-2.399s1.5.542 1.5 2.399zm9 0c0 1.857-.34 2.4-1.5 2.4s-1.5-.543-1.5-2.4c0-1.856.34-2.399 1.5-2.399s1.5.542 1.5 2.399z"/>
        <path fill="#292F33"
              d="M13 15.002c0 1.104-.896 2-2 2s-2-.896-2-2S9.896 13 11 13s2 .898 2 2.002zm14 0c0 1.104-.896 2-2 2s-2-.896-2-2S23.896 13 25 13s2 .898 2 2.002z"/>
    </symbol>
    <symbol id="cat" viewBox="0 0 36 36">
        <path fill="#FFCC4D"
              d="M32.348 13.999s3.445-8.812 1.651-11.998c-.604-1.073-8 1.998-10.723 5.442 0 0-2.586-.86-5.276-.86s-5.276.86-5.276.86C10.001 3.999 2.605.928 2.001 2.001.207 5.187 3.652 13.999 3.652 13.999c-.897 1.722-1.233 4.345-1.555 7.16-.354 3.086.35 5.546.658 6.089.35.617 2.123 2.605 4.484 4.306 3.587 2.583 8.967 3.445 10.761 3.445s7.174-.861 10.761-3.445c2.361-1.701 4.134-3.689 4.484-4.306.308-.543 1.012-3.003.659-6.089-.324-2.814-.659-5.438-1.556-7.16z"/>
        <path fill="#F18F26"
              d="M2.359 2.971c.2-.599 5.348 2.173 6.518 5.404 0 0-3.808 2.624-4.528 4.624 0 0-2.99-7.028-1.99-10.028z"/>
        <path fill="#FFCC4D"
              d="M5.98 7.261c0-1.414 5.457 2.733 4.457 3.733s-1.255.72-2.255 1.72S5.98 8.261 5.98 7.261z"/>
        <path fill="#F18F26"
              d="M33.641 2.971c-.2-.599-5.348 2.173-6.518 5.404 0 0 3.808 2.624 4.528 4.624 0 0 2.99-7.028 1.99-10.028z"/>
        <path fill="#FFCC4D"
              d="M30.02 7.261c0-1.414-5.457 2.733-4.457 3.733s1.255.72 2.255 1.72 2.202-4.453 2.202-5.453z"/>
        <path fill="#292F33"
              d="M14.001 20.001c0 1.105-.896 1.999-2 1.999s-2-.894-2-1.999c0-1.104.896-1.999 2-1.999s2 .896 2 1.999zm11.998 0c0 1.105-.896 1.999-2 1.999-1.105 0-2-.894-2-1.999 0-1.104.895-1.999 2-1.999s2 .896 2 1.999z"/>
        <path fill="#FEE7B8"
              d="M2.201 30.458c-.148 0-.294-.065-.393-.19-.171-.217-.134-.531.083-.702.162-.127 4.02-3.12 10.648-2.605.275.021.481.261.46.536-.021.275-.257.501-.537.46-6.233-.474-9.915 2.366-9.951 2.395-.093.07-.202.106-.31.106zm8.868-4.663c-.049 0-.1-.007-.149-.022-4.79-1.497-8.737-.347-8.777-.336-.265.081-.543-.07-.623-.335-.079-.265.071-.543.335-.622.173-.052 4.286-1.247 9.362.338.264.083.411.363.328.627-.066.213-.263.35-.476.35zm22.73 4.663c.148 0 .294-.065.393-.19.171-.217.134-.531-.083-.702-.162-.127-4.02-3.12-10.648-2.605-.275.021-.481.261-.46.536.022.275.257.501.537.46 6.233-.474 9.915 2.366 9.951 2.395.093.07.202.106.31.106zm-8.868-4.663c.049 0 .1-.007.149-.022 4.79-1.497 8.737-.347 8.777-.336.265.081.543-.07.623-.335.079-.265-.071-.543-.335-.622-.173-.052-4.286-1.247-9.362.338-.264.083-.411.363-.328.627.066.213.263.35.476.35z"/>
        <path fill="#67757F"
              d="M24.736 30.898c-.097-.258-.384-.392-.643-.294-.552.206-1.076.311-1.559.311-1.152 0-1.561-.306-2.033-.659-.451-.338-.956-.715-1.99-.803v-2.339c0-.276-.224-.5-.5-.5s-.5.224-.5.5v2.373c-.81.115-1.346.439-1.816.743-.568.367-1.059.685-2.083.685-.482 0-1.006-.104-1.558-.311-.258-.095-.547.035-.643.294-.097.259.035.547.293.644.664.247 1.306.373 1.907.373 1.319 0 2.014-.449 2.627-.845.524-.339.98-.631 1.848-.635.992.008 1.358.278 1.815.621.538.403 1.147.859 2.633.859.601 0 1.244-.126 1.908-.373.259-.097.391-.385.294-.644z"/>
        <path fill="#E75A70"
              d="M19.4 24.807h-2.8c-.64 0-1.163.523-1.163 1.163 0 .639.523 1.163 1.163 1.163h.237v.345c0 .639.523 1.163 1.163 1.163s1.163-.523 1.163-1.163v-.345h.237c.639 0 1.163-.523 1.163-1.163s-.524-1.163-1.163-1.163z"/>
        <path fill="#F18F26"
              d="M18.022 17.154c-.276 0-.5-.224-.5-.5V8.37c0-.276.224-.5.5-.5s.5.224.5.5v8.284c0 .277-.223.5-.5.5zM21 15.572c-.276 0-.5-.224-.5-.5 0-2.882 1.232-5.21 1.285-5.308.13-.244.435-.334.677-.204.243.13.334.433.204.677-.012.021-1.166 2.213-1.166 4.835 0 .276-.224.5-.5.5zm-6 0c-.276 0-.5-.224-.5-.5 0-2.623-1.155-4.814-1.167-4.835-.13-.244-.038-.546.205-.677.242-.131.545-.039.676.204.053.098 1.285 2.426 1.285 5.308.001.276-.223.5-.499.5z"/>
    </symbol>
    <symbol id="chicken" viewBox="0 0 36 36">
        <path fill="#E1E8ED"
              d="M20.143 32.215c0 1.183-.959 2.143-2.143 2.143s-2.143-.96-2.143-2.143c0-1.184.96-2.144 2.143-2.144s2.143.96 2.143 2.144z"/>
        <path fill="#E1E8ED"
              d="M27.643 15.643C27.643 10.317 23.324 6 18 6c-5.326 0-9.643 4.317-9.643 9.643 0 5.357-1.071 16.572-1.071 16.572 0 1.183.959 2.143 2.143 2.143 1.183 0 2.143-.96 2.143-2.143 0 1.183.96 2.143 2.143 2.143 1.183 0 2.142-.96 2.142-2.143h4.286c0 1.183.96 2.143 2.144 2.143 1.183 0 2.143-.96 2.143-2.143 0 1.183.959 2.143 2.143 2.143 1.184 0 2.143-.96 2.143-2.143-.002 0-1.073-11.215-1.073-16.572z"/>
        <path fill="#DD2E44"
              d="M20 3c0 2.209-1.447 6-2 6-.552 0-2-3.791-2-6s1.448-3 2-3c.553 0 2 .791 2 3zm-4.365 30c0-2.612 1.711-8 2.365-8 .653 0 2.365 5.388 2.365 8S18.652 36 18 36c-.654 0-2.365-.388-2.365-3z"/>
        <ellipse fill="#F4900C" cx="18" cy="22.5" rx="7" ry="4.5"/>
        <path fill="#FFAC33" d="M25 22.5c0 1.5-14 1.5-14 0s4.791-4.5 7-4.5 7 3 7 4.5z"/>
        <circle fill="#292F33" cx="11.5" cy="18.5" r="1.5"/>
        <circle fill="#292F33" cx="24.5" cy="18.5" r="1.5"/>
    </symbol>
    <symbol id="cow" viewBox="0 0 36 36">
        <path fill="#99AAB5"
              d="M4 8s-4 2-4 11c0 0 6-1 7-3 0 0 2-12.25-3-8zm27.995.043s4 2 4 11c0 0-6-.999-7-2.999 0 0-2-12.251 3-8.001z"/>
        <path fill="#FFE8B6"
              d="M1 1c-1.01.99 1 8 5 9s4-5 3-5C5 5 3.042-1 1 1zm34.297 0c1.011.99-1 8-5 9s-4-5-3-5c4 0 5.959-6 8-4z"/>
        <path fill="#CCD6DD"
              d="M21.976 31h-7.951C8.488 31 4 26.512 4 20.976v-8.951C4 6.488 8.488 2 14.025 2h7.951C27.512 2 32 6.488 32 12.025v8.951C32 26.512 27.512 31 21.976 31z"/>
        <path fill="#E6AAAA"
              d="M35 28c0 5.522-4.478 8-10 8H11c-5.523 0-10-2.478-10-8s4.477-10 10-10h14c5.522 0 10 4.478 10 10z"/>
        <ellipse fill="#C1694F" cx="9.5" cy="26" rx="1.5" ry="3"/>
        <ellipse fill="#C1694F" cx="26.5" cy="26" rx="1.5" ry="3"/>
        <path fill="#272B2B"
              d="M11 12s0-2 2-2 2 2 2 2v2s0 2-2 2-2-2-2-2v-2zm10 0s0-2 2-2 2 2 2 2v2s0 2-2 2-2-2-2-2v-2z"/>
    </symbol>
    <symbol id="deer" viewBox="0 0 36 36">
        <path fill="#662113"
              d="M15.971 15.083c-1.458-2.333-.667-7.708 0-8.958s-.542-2.458-1.5-.458-.996 3-3.162 2.458-1.088-3.292-.379-5.625c.729-2.4-.917-1.959-1.667-.458-.75 1.5-1.254 5.693-2.901 5.984-1.647.291-6.099.599-2.851-5.651C4.818-.139 2.773-.656 1.68 1.459.361 4.007-.404 7.25.221 8.625c1.113 2.448 3.483 2.95 6.983 2.284s6.101-.634 6.101 1.133c0 1.872.208 3.458 1.042 3.625s1.624-.584 1.624-.584zm4.057 0c1.458-2.333.667-7.708 0-8.958s.542-2.458 1.5-.458.996 3 3.162 2.458 1.088-3.292.379-5.625c-.729-2.4.917-1.959 1.667-.458s1.254 5.693 2.901 5.984c1.647.292 6.099.599 2.851-5.651-1.307-2.514.737-3.031 1.831-.916 1.318 2.549 2.084 5.792 1.459 7.167-1.113 2.448-3.482 2.95-6.982 2.284s-6.102-.634-6.102 1.133c0 1.872-.208 3.458-1.041 3.625s-1.625-.585-1.625-.585z"/>
        <path fill="#C1694F"
              d="M13.859 15.495c.596 2.392.16 4.422-2.231 5.017-2.392.596-6.344.559-7.958-1.303-2.294-2.646-2.531-6.391-1.189-6.725 1.34-.334 10.783.62 11.378 3.011zm8.283 0c-.596 2.392-.16 4.422 2.231 5.017 2.392.596 6.345.559 7.958-1.303 2.295-2.646 2.531-6.391 1.189-6.725-1.34-.334-10.783.62-11.378 3.011z"/>
        <path fill="#272B2B"
              d="M2.48 12.484c-.943.235-1.102 2.157-.317 4.198l3.374-4.134c-1.457-.146-2.643-.167-3.057-.064zm31.041 0c-.419-.104-1.632-.083-3.118.069l3.445 4.106c.774-2.032.613-3.941-.327-4.175z"/>
        <path fill="#E6AAAA"
              d="M12.052 15.997c.871 1.393-.553 2.229-1.946 3.099-1.394.871-4.608-.203-5.479-1.596-.871-1.394-1.186-3.131-.676-3.45.51-.318 7.23.553 8.101 1.947zm11.896 0c-.871 1.393.553 2.229 1.945 3.099 1.394.871 4.608-.203 5.479-1.596.871-1.394 1.185-3.131.676-3.45-.51-.318-7.229.553-8.1 1.947z"/>
        <path fill="#C1694F"
              d="M18 14.125h-.002c-10.271.001-8.703 3.959-7.603 10.541 1.1 6.584 2.401 11.256 7.605 11.256 5.203 0 6.502-4.672 7.604-11.256 1.099-6.582 2.666-10.54-7.604-10.541z"/>
        <path fill="#272B2B"
              d="M11.826 22.851s-.75-1.299.549-2.049 2.049.549 2.049.549l.75 1.299s.75 1.299-.549 2.049-2.049-.549-2.049-.549l-.75-1.299zm9.75-1.5s.75-1.299 2.049-.549.549 2.049.549 2.049l-.75 1.299s-.75 1.299-2.049.549-.549-2.049-.549-2.049l.75-1.299zm-6.35 12.915c-.925-.188 1.85-3.596 2.774-3.596s3.699 3.407 2.774 3.596c-.924.188-4.624.188-5.548 0z"/>
    </symbol>
    <symbol id="dog" viewBox="0 0 36 36">
        <path fill="#DD2E44" d="M15 27v6s0 3 3 3 3-3 3-3v-6h-6z"/>
        <path fill="#BE1931"
              d="M15 33l.001.037c1.041-.035 2.016-.274 2.632-1.286.171-.281.563-.281.735 0 .616 1.011 1.591 1.251 2.632 1.286V27h-6v6z"/>
        <path fill="#D99E82"
              d="M31.954 21.619c0 6.276-5 6.276-5 6.276h-18s-5 0-5-6.276c0-6.724 5-18.619 14-18.619s14 12.895 14 18.619z"/>
        <path fill="#F4C7B5"
              d="M18 20c-7 0-10 3.527-10 6.395 0 3.037 2.462 5.5 5.5 5.5 1.605 0 3.042-.664 4.049-2.767.185-.386.716-.386.901 0 1.007 2.103 2.445 2.767 4.049 2.767 3.038 0 5.5-2.463 5.5-5.5C28 23.527 25 20 18 20z"/>
        <path fill="#292F33"
              d="M15 22.895c-1 1 2 4 3 4s4-3 3-4-5-1-6 0zM13 19c-1.1 0-2-.9-2-2v-2c0-1.1.9-2 2-2s2 .9 2 2v2c0 1.1-.9 2-2 2zm10 0c-1.1 0-2-.9-2-2v-2c0-1.1.9-2 2-2s2 .9 2 2v2c0 1.1-.9 2-2 2z"/>
        <path fill="#662113"
              d="M15 3.608C13.941 2.199 11.681.881 2.828 4.2-1.316 5.754.708 17.804 3.935 18.585c1.106 0 4.426 0 4.426-8.852 0-.22-.002-.423-.005-.625C10.35 6.298 12.5 4.857 15 3.608zm18.172.592C24.319.881 22.059 2.199 21 3.608c2.5 1.25 4.65 2.691 6.644 5.501-.003.201-.005.404-.005.625 0 8.852 3.319 8.852 4.426 8.852 3.227-.782 5.251-12.832 1.107-14.386z"/>
        <circle fill="#D99E82" cx="23.5" cy="25.5" r=".5"/>
        <circle fill="#D99E82" cx="11.5" cy="25.5" r=".5"/>
        <circle fill="#D99E82" cx="25.5" cy="27.5" r=".5"/>
        <circle fill="#D99E82" cx="10.5" cy="27.5" r=".5"/>
        <circle fill="#D99E82" cx="23" cy="28" r="1"/>
        <circle fill="#D99E82" cx="13" cy="28" r="1"/>
        <path fill="#380F09"
              d="M9.883 7.232c-.259-.673-.634-1.397-1.176-1.939-.391-.391-1.023-.391-1.414 0s-.391 1.023 0 1.414c.57.57 1.066 1.934 1.068 2.346.145-.404.839-1.15 1.522-1.821zm16.217 0c.259-.672.634-1.397 1.176-1.939.391-.391 1.023-.391 1.414 0s.391 1.023 0 1.414c-.57.57-1.066 1.934-1.068 2.346-.145-.404-.839-1.15-1.522-1.821z"/>
    </symbol>
    <symbol id="dragon" viewBox="0 0 36 36">
        <path fill="#3E721D"
              d="M35.125 13.344c0-1 .771-2.327.771-2.635 0-.656-1.553-.421-1.626-1.046-.209-1.794 1.887-3.318-1.745-3.312-1.352.002-.274-1.768-.274-2.725 0-.957-2.596-.145-3.552-.145-.957 0-.957-2.87-1.913-2.87-2.87 0-3.827 2.87-4.783 2.87-.957 0-1.744-3.621-2.87-2.87-2.87 1.913-3.826 7.653-3.826 7.653s4.783-3.826 10.522-2.87c5.345.891 4.79 10.821 5.641 16.888L24.609 36h3.359c.344-1.5 1.939-.529 2.375-1.688.381-1.016-.67-1.966-.094-2.969s.978-.755 2.094-1.375c1.184-.657 0-2.199 0-3.156 0-.956 2.312-1.574 2.312-2.531 0-.63-1.068-1.292-.812-2.356.257-1.064 1.586-1.186 1.749-2.184.138-.847-.921-1.455-.796-2.393s1.174-1.378 1.174-2.097c.002-.718-.845-1.001-.845-1.907z"/>
        <path fill="#77B255"
              d="M34.438 13.458c0-4.038-2.87-9.085-9.566-9.085-6.695 0-17.265 10.024-20.088 10.096C2.87 12.521 0 14.523 0 16.486c0 3.028 5.373 4.61 5.646 4.899 1.088 1.149 3.92 8.083 8.704 1.945.803-1.03 1.302-.422 3.483.542C25.069 27.729 16 36 16 36h9.566c4.782-4.783 8.871-13.844 8.871-21.997l-.021.008c.007-.185.022-.369.022-.553z"/>
        <path fill="#292F33"
              d="M23.915 12.09c0 1.056-.856 1.913-1.913 1.913s-1.913-.857-1.913-1.913c0-1.057.856-1.913 1.913-1.913 1.057-.001 1.913.856 1.913 1.913z"/>
        <path fill="#3E721D"
              d="M4.783 17.351c0 .793-.643.479-1.435.479s-1.435.315-1.435-.479c0-.792.643-1.435 1.435-1.435.793 0 1.435.643 1.435 1.435z"/>
        <path fill="#FFF"
              d="M18.176 18.782c0 1.058-.643.956-1.436.956-.792 0-1.434.101-1.434-.956 0-1.056.642-3.826 1.434-3.826.793 0 1.436 2.771 1.436 3.826zm-3.827.956c0 1.058-.643.957-1.435.957s-1.435.101-1.435-.957c0-1.056.643-3.826 1.435-3.826.792.001 1.435 2.771 1.435 3.826z"/>
        <path fill="#3E721D"
              d="M18.04 18.795c-5.076.726-10.192 2.007-12.394 2.59.275.29.661.95 1.162 1.674 2.415-.624 6.975-1.724 11.503-2.369.524-.074.887-.561.812-1.083-.075-.524-.563-.888-1.083-.812zm.549-6.186c-.258 0-.515-.098-.709-.295-.388-.391-.388-1.021.001-1.41.129-.129 3.222-3.163 8.36-3.163.553 0 1 .448 1 1s-.447 1-1 1c-4.281 0-6.923 2.554-6.949 2.58-.194.192-.449.288-.703.288z"/>
    </symbol>
    <symbol id="eagle" viewBox="0 0 36 36">
        <path fill="#292F33"
              d="M7.042 26c.33 0 .651.121.963.331 1.368-8.106 20.362-8.248 21.755-.29 1.666.412 3.08 4.378 3.748 9.959h-31c.793-5.899 2.522-10 4.534-10z"/>
        <path fill="#E1E8ED"
              d="M7.043 23.688C10.966 12.533 6.508 3 17.508 3s8.736 8.173 13.193 19.125c1.119 2.75-1.443 5.908-1.443 5.908s-2.612-4.756-4.75-5.846c-.591 3.277-1.75 6.938-1.75 6.938s-2.581-2.965-5.587-5.587c-.879 1.009-2.065 2.183-3.663 3.462-.349-1.048-.943-2.339-1.568-3.576-1.468 2.238-3.182 4.951-3.182 4.951s-2.507-2.435-1.715-4.687z"/>
        <path fill="#FFCC4D"
              d="M11.507 5c-4.36 3.059-5.542 2.16-7.812 3.562-2.125 1.312-2 4.938-.125 8.062.579-2.661-.5-3.149 6.938-3.149 5 0 7.928.289 7-1-.927-1.289-10.027.459-6.001-7.475z"/>
        <path fill="#292F33"
              d="M16.535 7.517c0 .82-.663 1.483-1.483 1.483-.82 0-1.484-.663-1.484-1.483 0-.157.031-.305.076-.446h2.816c.044.141.075.289.075.446z"/>
    </symbol>
    <symbol id="fox" viewBox="0 0 36 36">
        <path fill="#F4900C"
              d="M13.431 9.802c.658 2.639.176 4.879-2.462 5.536-2.64.657-6.211 4.954-8.782-1.438C.696 10.197-.606 2.434.874 2.065c1.48-.368 11.9 5.098 12.557 7.737z"/>
        <path fill="#A0041E"
              d="M11.437 10.355c.96 1.538-1.831 4.561-3.368 5.522-1.538.961-2.899-.552-4.414-4.414-.662-1.689-1.666-6.27-1.103-6.622.562-.351 7.924 3.976 8.885 5.514z"/>
        <path fill="#F4900C"
              d="M22.557 9.802c-.657 2.639-.177 4.879 2.463 5.536s6.21 4.954 8.782-1.438c1.49-3.703 2.792-11.466 1.312-11.835-1.48-.368-11.899 5.098-12.557 7.737z"/>
        <path fill="#A0041E"
              d="M24.552 10.355c-.96 1.538 1.831 4.561 3.368 5.522 1.537.961 2.898-.552 4.413-4.414.662-1.688 1.666-6.269 1.104-6.621-.563-.352-7.924 3.975-8.885 5.513z"/>
        <path fill="#F4900C"
              d="M18.001 9.255C11.379 7.048 6.53 11.229 2.552 19.188h2.207s-2.207 2.206-3.311 5.517c2.207-1.104 3.311-1.104 3.311-1.104s-1.104 2.208-1.104 3.312c3.311-2.208 6.621-2.208 8.828 1.103s5.518 0 5.518-4.414V9.255z"/>
        <path fill="#F4900C"
              d="M18.001 9.255c6.621-2.207 11.471 1.974 15.448 9.932h-2.206s2.206 2.206 3.309 5.517C32.346 23.6 31.243 23.6 31.243 23.6s1.103 2.208 1.103 3.312c-3.311-2.208-6.621-2.208-8.828 1.103-2.208 3.311-5.518 0-5.518-4.414l.001-14.346z"/>
        <path fill="#F4900C"
              d="M18.001 8.29h-.003c-11.334.001-9.605 4.369-8.39 11.632 1.214 7.266 2.65 12.421 8.393 12.421 5.741 0 7.175-5.155 8.391-12.421 1.213-7.264 2.941-11.631-8.391-11.632z"/>
        <path fill="#F18F26"
              d="M34.709 26.042c-.084-5.708-9.301-3.745-10.087-2.972-1.104 1.084-1.108 7.705-6.623 7.705-5.516 0-6.62-6.621-7.723-7.705-.787-.773-9.234-1.403-9.026 2.972 2.207-1.104 3.508-.784 3.508-.784s-1.425.826-1.216 2.784c3.208-1.458 4.708-1.25 6.458-.375C11.213 31.29 14.206 34 18.001 34c3.793 0 6.746-2.794 7.958-6.416 1.458-1.25 3.708-.875 6.416.416.292-1.833-1.132-2.742-1.132-2.742s1.26-.32 3.466.784z"/>
        <path fill="#FFD983"
              d="M34.553 24.704c-.904-2.718-9.145-4.064-9.931-3.291-1.104 1.084-1.108 7.705-6.623 7.705-5.516 0-6.62-6.621-7.723-7.705-.787-.773-7.922.573-8.828 3.291C3.655 23.6 4.759 23.6 4.759 23.6s-1.104 2.208-1.104 3.312c2.67-1.78 5.339-2.122 7.429-.452 1.213 3.623 3.122 5.883 6.917 5.883 3.793 0 5.7-2.259 6.912-5.881 2.092-1.673 4.763-1.33 7.434.45 0-1.104-1.103-3.312-1.103-3.312s1.103.001 3.309 1.104z"/>
        <path fill="#272B2B"
              d="M11 17s0-1.5 1.5-1.5S14 17 14 17v1.5s0 1.5-1.5 1.5-1.5-1.5-1.5-1.5V17zm11 0s0-1.5 1.5-1.5S25 17 25 17v1.5s0 1.5-1.5 1.5-1.5-1.5-1.5-1.5V17zm-7.061 10.808c-1.021.208 2.041 3.968 3.062 3.968 1.02 0 4.082-3.76 3.062-3.968-1.021-.208-5.103-.208-6.124 0z"/>
    </symbol>
    <symbol id="frog" viewBox="0 0 36 36">
        <path fill="#C6E5B3" d="M36 22c0 7.456-8.059 12-18 12S0 29.456 0 22 8.059 7 18 7s18 7.544 18 15z"/>
        <path fill="#77B255"
              d="M31.755 12.676C33.123 11.576 34 9.891 34 8c0-3.313-2.687-6-6-6-2.861 0-5.25 2.004-5.851 4.685-1.288-.483-2.683-.758-4.149-.758-1.465 0-2.861.275-4.149.758C13.25 4.004 10.861 2 8 2 4.687 2 2 4.687 2 8c0 1.891.877 3.576 2.245 4.676C1.6 15.356 0 18.685 0 22c0 7.456 8.059 1 18 1s18 6.456 18-1c0-3.315-1.6-6.644-4.245-9.324z"/>
        <circle fill="#FFF" cx="7.5" cy="7.5" r="3.5"/>
        <circle fill="#292F33" cx="7.5" cy="7.5" r="1.5"/>
        <circle fill="#FFF" cx="28.5" cy="7.5" r="3.5"/>
        <circle fill="#292F33" cx="28.5" cy="7.5" r="1.5"/>
        <circle fill="#5C913B" cx="14" cy="20" r="1"/>
        <circle fill="#5C913B" cx="22" cy="20" r="1"/>
    </symbol>
    <symbol id="giraffe" viewBox="0 0 36 36">
        <path d="M22.217 35.615h-.002c-.804-.142-1.34-.908-1.198-1.712l.59-3.344s.68-3.165-1.076-5.449c1.259-1.171 5.024.085 5.024.085l-1.626 9.221c-.142.804-.908 1.34-1.712 1.199zm-12.692-.021h-.002c-.804-.142-1.34-.908-1.198-1.712l1.312-7.025s.503-2.419.503-4.439c1.142-.439 2.723 2.757 2.723 2.757l-1.626 9.221c-.143.803-.909 1.339-1.712 1.198zm21.277-9.823c-.537 0-.977-.431-.985-.969-.012-.723-.304-4.326-4.925-4.326-.545 0-.985-.441-.985-.985s.441-.985.985-.985c5.363 0 6.858 3.938 6.896 6.264.009.545-.425.993-.969 1.002l-.017-.001z"
              fill="#F4900C"/>
        <g fill="#754C29">
            <path d="M15.226 17.252l-3.46-11.98 1.687-1.02c.369.61.628 1.722 1.054 3.633.569 2.558 1.349 6.06 2.657 7.876.318.442.218 1.058-.224 1.376-.175.126-1.714.115-1.714.115zM7.615 2.71V.739c0-.408.331-.739.739-.739s.739.331.739.739V2.71H7.615zm2.332 0V.739c0-.408.331-.739.739-.739s.739.331.739.739V2.71H9.947z"/>
            <ellipse cx="30.802" cy="26.263" rx="1.971" ry="2.464"/>
        </g>
        <path fill="#FFCC4D"
              d="M28.935 34.094s-.647-2.515-.998-4.154c-.332-1.549-1.025-3.981-1.171-8.225-.01-.145-.039-.512-.138-.779-.122-.33-.567-.933-.766-1.203-.777-1.052-2.012-1.691-3.526-1.847-1.283-.132-2.573-.185-3.854-.339-.59-.071-1.1-.156-1.422-.272-1.636-.589-1.962-2.502-2.414-3.965-.8-2.59-1.508-5.225-1.961-7.9l-.036.009.036-.009-.027-.165V4.84c1.567-.714 2.79-2.888 1.971-3.706-1.416-.708-2.827.11-3.513.992-.02-.001-.039-.006-.059-.006H8.459c-.655 0-1.304.16-1.872.51-.584.359-.986.907-1.633 1.19-.786.344-1.721.093-2.417.64-1.189.933-.625 2.525.854 2.578.201.577.745.993 1.39.993h2.106c.055.011.108.021.173.029.604.071 1.088.525 1.477 1.215 1.047 1.856 1.244 4.244 1.415 6.324.119 1.448.177 2.906.158 4.36-.293 1.566-.12 3.377-.12 3.377.044.419.186.777.394 1.095l-.01.011c1.99 2.81 2.449 5.97 2.449 5.97l.784 4.193c.142.804.908 1.341 1.713 1.199.804-.142 1.341-.908 1.199-1.712l-1.262-7.159c1.977.534 4.609.932 6.449.852 0 .006-.003.014-.002.02 2.371-.146 3.26 1.73 3.454 2.576.194.846.868 4.228.868 4.228.142.804.909 1.341 1.712 1.199.802-.143 1.339-.91 1.197-1.714z"/>
        <path fill="#F4900C"
              d="M11.975 22.1c-.985.985-1.16 2.408-.391 3.178.77.77 2.193.595 3.178-.391s1.16-2.408.391-3.178c-.77-.77-2.193-.595-3.178.391zm1.088-6.185c0 1.633 1.324 2.956 2.956 2.956 1.029 0 1.933-.526 2.462-1.323-.59-.071-1.1-.156-1.422-.272-1.564-.563-1.872-2.237-2.253-3.441-.057-.179-.108-.349-.162-.523-.935.496-1.581 1.469-1.581 2.603zm-.986-4.434c0-1.361-1.103-2.464-2.464-2.464-.388 0-.75.098-1.077.257.635 1.126 1.015 2.885 1.242 4.653 1.282-.086 2.299-1.142 2.299-2.446zm-1.093-4.079c0 1.118.906 2.023 2.023 2.023.182 0 .355-.032.523-.077-.449-1.787-.709-3.122-.847-3.937-.961.156-1.699.985-1.699 1.991zm8.977 12.456c0 1.633 1.324 2.956 2.956 2.956 1.633 0 2.956-1.324 2.956-2.956 0-.043-.011-.082-.013-.124-.777-1.052-2.012-1.691-3.526-1.847-.457-.047-.972-.088-1.499-.128-.538.536-.874 1.277-.874 2.099zM11.598 2.613c.505-.483 1.317-1.089 1.778-.856.461.233.258 1.273-1.166 2.151.113-.439.551-1.215-.612-1.295z"/>
        <circle fill="#292F33" cx="8.772" cy="4.09" r=".985"/>
        <path d="M21.047 33.545s-1.142 1.351-.985 1.781 2.741.491 3.249.022-1.951-1.842-2.264-1.803zm-12.623 0s-1.142 1.351-.985 1.781c.156.43 2.741.491 3.249.022s-1.951-1.842-2.264-1.803zm4.547 2.22c.136.391 2.766.329 3.205-.461.439-.79-2.678-1.317-2.678-1.317s-.703 1.273-.527 1.778zm12.404 0c.136.391 2.766.329 3.205-.461.439-.79-2.678-1.317-2.678-1.317s-.703 1.273-.527 1.778z"
              fill="#754C29"/>
    </symbol>
    <symbol id="gorilla" viewBox="0 0 36 36">
        <path fill="#31373D" d="M5 16c0-4-5-3-4 1s3 5 3 5l1-6zm26 0c0-4 5-3 4 1s-3 5-3 5l-1-6z"/>
        <path fill="#31373D"
              d="M32.65 21.736c0 10.892-4.691 14.087-14.65 14.087-9.958 0-14.651-3.195-14.651-14.087S8.042.323 18 .323c9.959 0 14.65 10.521 14.65 21.413z"/>
        <path fill="#66757F"
              d="M27.567 23c1.49-4.458 2.088-7.312-.443-7.312H8.876c-2.532 0-1.933 2.854-.444 7.312C3.504 34.201 17.166 34.823 18 34.823S32.303 33.764 27.567 23z"/>
        <path fill="#31373D"
              d="M15 18.003c0 1.105-.896 2-2 2s-2-.895-2-2c0-1.104.896-1 2-1s2-.105 2 1zm10 0c0 1.105-.896 2-2 2s-2-.895-2-2c0-1.104.896-1 2-1s2-.105 2 1z"/>
        <ellipse fill="#31373D" cx="15.572" cy="23.655" rx="1.428" ry="1"/>
        <path fill="#31373D"
              d="M21.856 23.655c0 .553-.639 1-1.428 1-.79 0-1.429-.447-1.429-1 0-.553.639-1 1.429-1s1.428.448 1.428 1z"/>
        <path fill="#99AAB5"
              d="M21.02 21.04c-1.965-.26-3.02.834-3.02.834s-1.055-1.094-3.021-.834c-3.156.417-3.285 3.287-1.939 3.105.766-.104.135-.938 1.713-1.556 1.579-.616 3.247.66 3.247.66s1.667-1.276 3.246-.659.947 1.452 1.714 1.556c1.346.181 1.218-2.689-1.94-3.106z"/>
        <path fill="#31373D"
              d="M24.835 30.021c-1.209.323-3.204.596-6.835.596s-5.625-.272-6.835-.596c-3.205-.854-1.923-1.735 0-1.477 1.923.259 3.631.415 6.835.415 3.205 0 4.914-.156 6.835-.415 1.923-.258 3.204.623 0 1.477z"/>
        <path fill="#66757F"
              d="M4.253 16.625c1.403-1.225-1.078-3.766-2.196-2.544-.341.373.921-.188 1.336 1.086.308.942.001 2.208.86 1.458zm27.493 0c-1.402-1.225 1.078-3.766 2.196-2.544.341.373-.921-.188-1.337 1.086-.306.942 0 2.208-.859 1.458z"/>
    </symbol>
    <symbol id="hamster" viewBox="0 0 36 36">
        <circle fill="#FFCC4D" cx="8.5" cy="9.5" r="8.5"/>
        <circle fill="#FFCC4D" cx="27.5" cy="9.5" r="8.5"/>
        <path fill="#EA596E"
              d="M13.912 5.854c-1.264-1.621-3.229-2.667-5.443-2.667-3.813 0-6.906 3.093-6.906 6.906 0 2.773 1.638 5.157 3.996 6.256.709-4.195 3.983-8.672 8.353-10.495zm13.619-2.666c-2.214 0-4.18 1.046-5.443 2.667 4.369 1.823 7.643 6.3 8.354 10.496 2.357-1.099 3.996-3.483 3.996-6.256 0-3.815-3.093-6.907-6.907-6.907z"/>
        <path fill="#FFE8B6"
              d="M34 22.593c-2-10.045-11.333-6.5-16-6.5s-14-3.546-16 6.5c-1.295 6.504 3.794 9.879 9.032 11.387C12.682 35.212 15.19 36 18 36c2.81 0 5.318-.788 6.969-2.021 5.237-1.508 10.326-4.882 9.031-11.386z"/>
        <path fill="#FFCC4D"
              d="M30.6 18c0 11-5.641 6-12.6 6S5.4 29 5.4 18c0-5.799 5.641-13 12.6-13s12.6 7.201 12.6 13z"/>
        <path fill="#EA596E"
              d="M20.905 27.956c0 1.604-2.012 3.352-2.905 3.352-.894 0-2.905-1.748-2.905-3.352C15.095 26.351 16.882 26 18 26c1.117 0 2.905.351 2.905 1.956z"/>
        <path fill="#C1694F"
              d="M35.515 30.303c-5.245-3.146-12.355-2.175-12.656-2.133-.014.002-.023.011-.037.013-.081.015-.153.048-.228.081-.046.021-.093.035-.134.062-.061.039-.107.092-.158.144-.041.041-.084.076-.117.123-.036.052-.056.111-.082.17-.027.062-.058.121-.071.189-.004.016-.015.028-.018.045-.009.055.006.105.006.159-.001.049-.016.095-.009.146.002.016.012.027.015.042.013.069.041.13.067.193.024.06.044.12.079.173.028.044.067.076.101.115.053.058.104.114.168.158.038.026.083.041.125.062.074.036.146.07.229.087.015.003.026.013.041.016.056.01 5.636.977 8.364 4.613.196.263.496.4.801.4.209 0 .419-.065.599-.2.442-.331.532-.958.2-1.399-1.108-1.479-2.573-2.566-4.025-3.369 1.88.242 3.942.765 5.711 1.826.161.097.339.143.514.143.34 0 .671-.173.858-.485.284-.476.13-1.09-.343-1.374zm-21.686-.596c.034-.052.053-.111.077-.169.026-.064.055-.124.068-.193.003-.016.013-.028.016-.044.007-.053-.008-.103-.009-.154 0-.051.014-.1.005-.151-.002-.016-.013-.027-.016-.043-.015-.069-.045-.131-.074-.194-.025-.057-.045-.115-.08-.165-.032-.047-.075-.082-.115-.123-.051-.053-.099-.105-.16-.146-.04-.025-.087-.039-.131-.06-.075-.034-.148-.066-.23-.081-.014-.003-.024-.012-.038-.014-.301-.042-7.412-1.014-12.656 2.133-.474.284-.627.898-.343 1.372.188.312.519.485.858.485.175 0 .353-.046.514-.143 1.768-1.061 3.83-1.583 5.709-1.825-1.451.802-2.915 1.89-4.023 3.368-.332.441-.242 1.068.2 1.399.18.135.391.2.599.2.304 0 .604-.138.801-.4 2.717-3.622 8.31-4.604 8.366-4.613.015-.003.025-.012.04-.016.077-.016.144-.049.214-.082.048-.022.099-.039.142-.069.059-.04.104-.093.152-.144.039-.042.082-.079.114-.128z"/>
        <path fill="#272B2B"
              d="M10 20s0-2 2-2 2 2 2 2v2s0 2-2 2-2-2-2-2v-2zm12 0s0-2 2-2 2 2 2 2v2s0 2-2 2-2-2-2-2v-2z"/>
    </symbol>
    <symbol id="horse" viewBox="0 0 36 36">
        <path fill="#C1694F"
              d="M23.283 23.275s1.374 1.635 2.733 10.047c.143.883.201 1.775.217 2.678H36V7.448C31.613 3.975 25.601 3.259 18.322 5.69c0 0-5.408-3-6.147-3.739-.719-.72-1.857-1.556-1.235.35.364 1.112.764 2.373 2.358 4.862-3.436 2.036-4.513 4.68-8.558 13.341C1.652 27.12.08 29.269.937 31.797c1.13 3.337 5.316 5.595 8.844 3.021 1.919-1.4 2.246-3.913 6.225-6.223 3.653-.065 7.277-1.604 7.277-5.32z"/>
        <path fill="#292F33"
              d="M36 6.012C27.665.301 14.354 1.473 15.909 6.19 25.51 4.328 31.77 7.731 36 13.358V6.012z"/>
        <path fill="#292F33"
              d="M19.663 5.763c-2.878.233-7.157 1.595-9.296 3.967 0 0-.129-5.147 3.566-5.614 6.172-.779 5.809.363 5.809.363l-.079 1.284z"/>
        <path fill="#C1694F"
              d="M16.357 1.056c.558 1.155 4.006 1.79 5.056 6.029 1.051 4.24-3.134 2.951-4.356.855-1.361-2.334-1.828-4.162-1.867-5.679-.021-.801.039-3.538 1.167-1.205z"/>
        <path fill="#662113"
              d="M16.596 2.838c1.103.968 2.448 2.472 2.65 3.955.202 1.483-1.125.988-1.736-.372-.612-1.359-.753-2.779-1.134-3.233-.38-.454.22-.35.22-.35z"/>
        <path fill="#292F33"
              d="M16.94 15.525c0 .687-.557 1.244-1.245 1.244-.687 0-1.244-.557-1.244-1.244 0-.688.557-1.245 1.244-1.245.688.001 1.245.558 1.245 1.245z"/>
        <path fill="#662113"
              d="M4.222 29.917c0 .881-.532 1.594-1.187 1.594s-1.187-.713-1.187-1.594c0-.882.532-1.596 1.187-1.596s1.187.714 1.187 1.596z"/>
        <path fill="#D99E82"
              d="M10.354 9.924c-.033-.017-.075-.014-.111-.024-1.543 2.033-2.92 5.102-5.49 10.604-1.356 2.903-2.42 4.946-3.116 6.538 1.628.226 3.285-1.442 3.945-3.271.673-1.866 3.215-5.652 4.927-7.778 1.712-2.127 1.561-5.144-.155-6.069z"/>
    </symbol>
    <symbol id="koala" viewBox="0 0 36 36">
        <path fill="#99AAB5"
              d="M36 13.533C36 8.867 32.866 7 29 7c-1.621 0-3.285.354-4.676 1.027C22.523 6.798 20.405 6.062 18 6.062s-4.523.736-6.324 1.965C10.285 7.354 8.621 7 7 7c-3.866 0-7 1.867-7 6.533 0 3.844 2.128 6.417 5.038 7.206-.043.536-.068 1.073-.068 1.611 0 5.729 4.52 7.675 8.581 8.326C14.649 31.487 16.232 32 18 32s3.351-.513 4.449-1.323c4.062-.651 8.581-2.597 8.581-8.326 0-.538-.025-1.075-.068-1.611 2.91-.79 5.038-3.363 5.038-7.207z"/>
        <path fill="#66757F"
              d="M9.554 9.854C9.236 9.821 8.917 9.8 8.6 9.8 5.507 9.8 3 11.293 3 15.026c0 2.154.838 3.808 2.138 4.824.473-3.797 2.005-7.416 4.416-9.996zM27.4 9.8c-.317 0-.637.021-.955.054 2.412 2.58 3.943 6.199 4.416 9.997C32.162 18.834 33 17.181 33 15.026c0-3.733-2.507-5.226-5.6-5.226z"/>
        <path fill="#292F33"
              d="M21.728 24.807C21.728 28.152 20 29 18 29s-3.727-.848-3.727-4.193c0-3.345 1.727-6.057 3.727-6.057s3.728 2.712 3.728 6.057z"/>
        <circle fill="#292F33" cx="12.5" cy="19.875" r="1.5"/>
        <circle fill="#292F33" cx="23.5" cy="19.875" r="1.5"/>
    </symbol>
    <symbol id="lion" viewBox="0 0 36 36">
        <path fill="#662113"
              d="M32.325 10.958s2.315.024 3.511 1.177c-.336-4.971-2.104-8.249-5.944-10.13-3.141-1.119-6.066 1.453-6.066 1.453s.862-1.99 2.19-2.746C23.789.236 21.146 0 18 0c-3.136 0-5.785.227-8.006.701 1.341.745 2.215 2.758 2.215 2.758S9.194.803 6 2.053C2.221 3.949.481 7.223.158 12.174c1.183-1.19 3.55-1.215 3.55-1.215S-.105 13.267.282 16.614c.387 2.947 1.394 5.967 2.879 8.722C3.039 22.15 5.917 20 5.917 20s-2.492 5.96-.581 8.738c1.935 2.542 4.313 4.641 6.976 5.916-.955-1.645-.136-3.044-.103-2.945.042.125.459 3.112 2.137 3.743 1.178.356 2.4.548 3.654.548 1.292 0 2.55-.207 3.761-.583 1.614-.691 2.024-3.585 2.064-3.708.032-.098.843 1.287-.09 2.921 2.706-1.309 5.118-3.463 7.064-6.073 1.699-2.846-.683-8.557-.683-8.557s2.85 2.13 2.757 5.288c1.556-2.906 2.585-6.104 2.911-9.2-.035-3.061-3.459-5.13-3.459-5.13z"/>
        <path fill="#FFCC4D"
              d="M13.859 9.495c.596 2.392.16 4.422-2.231 5.017-2.392.596-6.363.087-6.958-2.304-.596-2.392.469-5.39 1.81-5.724 1.341-.334 6.784.62 7.379 3.011zm9.104 18.432c0 2.74-2.222 4.963-4.963 4.963s-4.963-2.223-4.963-4.963c0-2.741 2.223-4.964 4.963-4.964 2.741 0 4.963 2.222 4.963 4.964z"/>
        <path fill="#DD2E44"
              d="M21.309 27.927c0 1.827-1.481 3.309-3.309 3.309s-3.309-1.481-3.309-3.309c0-1.827 1.481-3.31 3.309-3.31s3.309 1.483 3.309 3.31z"/>
        <path fill="#E6AAAA"
              d="M11.052 8.997c.871 1.393.447 3.229-.946 4.1-1.394.871-2.608.797-3.479-.596-.871-1.394-.186-4.131.324-4.45.51-.319 3.23-.448 4.101.946z"/>
        <path fill="#FFCC4D"
              d="M22.141 9.495c-.596 2.392-.159 4.422 2.232 5.017 2.392.596 6.363.087 6.959-2.304.596-2.392-.47-5.39-1.811-5.724-1.342-.334-6.786.62-7.38 3.011z"/>
        <path fill="#E6AAAA"
              d="M24.948 8.997c-.871 1.393-.447 3.229.945 4.1 1.394.871 2.608.797 3.479-.596.871-1.394.185-4.131-.324-4.45-.51-.319-3.229-.448-4.1.946z"/>
        <path fill="#FFCC4D"
              d="M18 7.125h-.002C5.167 7.126 7.125 12.083 8.5 18.667 9.875 25.25 10.384 27 10.384 27h15.228s.51-1.75 1.885-8.333C28.872 12.083 30.829 7.126 18 7.125z"/>
        <path fill="#272B2B"
              d="M12 16s0-1.5 1.5-1.5S15 16 15 16v1.5s0 1.5-1.5 1.5-1.5-1.5-1.5-1.5V16zm9 0s0-1.5 1.5-1.5S24 16 24 16v1.5s0 1.5-1.5 1.5-1.5-1.5-1.5-1.5V16z"/>
        <path fill="#FFE8B6"
              d="M20.168 21.521c-1.598 0-1.385.848-2.168 2.113-.783-1.266-.571-2.113-2.168-2.113-6.865 0-6.837.375-6.865 2.828-.058 4.986 2.802 6.132 5.257 6.06 1.597-.048 2.994-.88 3.777-2.131.783 1.251 2.179 2.083 3.776 2.131 2.455.072 5.315-1.073 5.257-6.06-.029-2.453-.001-2.828-6.866-2.828z"/>
        <path fill="#272B2B"
              d="M14.582 21.411c-1.14.233 2.279 4.431 3.418 4.431s4.559-4.198 3.419-4.431c-1.14-.232-5.698-.232-6.837 0z"/>
        <circle fill="#D99E82" cx="11.5" cy="24.5" r=".5"/>
        <circle fill="#D99E82" cx="10.5" cy="26.5" r=".5"/>
        <circle fill="#D99E82" cx="12.5" cy="27.5" r=".5"/>
        <circle fill="#D99E82" cx="24.5" cy="24.5" r=".5"/>
        <circle fill="#D99E82" cx="25.5" cy="26.5" r=".5"/>
        <circle fill="#D99E82" cx="23.5" cy="27.5" r=".5"/>
    </symbol>
    <symbol id="monkey" viewBox="0 0 36 36">
        <ellipse transform="rotate(-14.999 5.05 17.456)" fill="#D79E84" cx="5.05" cy="17.455" rx="3.818"
                 ry="5.455"/>
        <ellipse transform="rotate(-75.001 31.05 17.455)" fill="#D79E84" cx="31.05" cy="17.455" rx="5.455"
                 ry="3.818"/>
        <path fill="#BF6952"
              d="M19.018 36h-2.036C10.264 36 3.75 30.848 3.75 23.636c0-4.121 1.527-6.182 1.527-6.182s-.509-2.061-.509-4.121C4.768 7.152 11.282 2 18 2c6.718 0 13.232 6.182 13.232 11.333 0 2.061-.509 4.121-.509 4.121s1.527 2.061 1.527 6.182C32.25 30.848 25.736 36 19.018 36z"/>
        <path fill="#D79E84"
              d="M30 16.042C30 12.153 26.825 9 22.909 9c-1.907 0-3.635.752-4.909 1.968C16.726 9.752 14.998 9 13.091 9 9.175 9 6 12.153 6 16.042c0 2.359 1.172 4.441 2.965 5.719-.503 1.238-.783 2.6-.783 4.031C8.182 31.476 12.578 35 18 35s9.818-3.524 9.818-9.208c0-1.431-.28-2.793-.783-4.031C28.828 20.483 30 18.4 30 16.042z"/>
        <ellipse fill="#292F33" cx="13" cy="17" rx="2.25" ry="3.25"/>
        <ellipse fill="#292F33" cx="23" cy="17" rx="2.25" ry="3.25"/>
        <path fill="#642116"
              d="M18 32.727c2.838 0 5.254-1.505 6.162-3.61.375-.871-.262-1.844-1.21-1.844h-9.904c-.948 0-1.585.974-1.21 1.844.908 2.105 3.324 3.61 6.162 3.61z"/>
        <circle fill="#642116" cx="16.25" cy="23" r="1"/>
        <circle fill="#642116" cx="19.75" cy="23" r="1"/>
        <path fill="#BF6952" d="M22.66.175s-5.455-1.091-7.636 2.182 4.364 1.091 4.364 1.091S20.478.175 22.66.175z"/>
    </symbol>
    <symbol id="mouse" viewBox="0 0 36 36">
        <circle fill="#99AAB5" cx="8.5" cy="9.5" r="8.5"/>
        <circle fill="#99AAB5" cx="27.5" cy="9.5" r="8.5"/>
        <path fill="#F4ABBA"
              d="M13.812 10.031c0 3.228-2.617 5.844-5.844 5.844s-5.844-2.616-5.844-5.844c0-3.227 2.617-5.844 5.844-5.844s5.844 2.617 5.844 5.844zm20.063 0c0 3.228-2.617 5.844-5.844 5.844-3.227 0-5.844-2.616-5.844-5.844 0-3.227 2.617-5.844 5.844-5.844 3.227.001 5.844 2.617 5.844 5.844z"/>
        <path fill="#99AAB5" d="M30 18c0 7.18-8 15-12 15S6 25.18 6 18s7-9 12-9 12 1.82 12 9z"/>
        <path fill="#F4ABBA"
              d="M20.905 29.648C20.905 31.252 18.894 33 18 33c-.894 0-2.905-1.748-2.905-3.352 0-1.605 1.788-1.956 2.905-1.956 1.117 0 2.905.351 2.905 1.956z"/>
        <g fill="#66757F">
            <path d="M34.999 32.16c-.175 0-.353-.046-.514-.143-4.628-2.777-11.278-1.877-11.345-1.867-.559.079-1.053-.304-1.13-.85-.078-.547.302-1.053.848-1.131.301-.042 7.411-1.014 12.656 2.133.474.284.627.898.343 1.372-.187.313-.518.486-.858.486z"/>
            <path d="M32.001 35.16c-.305 0-.604-.138-.801-.4-2.728-3.637-8.309-4.604-8.364-4.613-.545-.091-.913-.606-.822-1.15.09-.545.606-.92 1.15-.822.262.044 6.433 1.115 9.636 5.387.332.441.242 1.068-.2 1.399-.18.134-.39.199-.599.199zm-31-3c-.34 0-.671-.173-.858-.485-.284-.474-.131-1.088.343-1.372 5.244-3.146 12.355-2.175 12.656-2.133.546.078.926.584.848 1.131-.078.547-.582.93-1.13.85-.066-.009-6.717-.909-11.345 1.867-.161.096-.339.142-.514.142z"/>
            <path d="M3.999 35.16c-.208 0-.419-.065-.599-.2-.442-.331-.531-.958-.2-1.399 3.203-4.271 9.375-5.343 9.635-5.387.548-.097 1.059.276 1.15.821.091.544-.276 1.06-.82 1.151-.056.01-5.648.991-8.366 4.613-.195.263-.496.401-.8.401z"/>
        </g>
        <path fill="#272B2B"
              d="M12 21s0-2 2-2 2 2 2 2v2s0 2-2 2-2-2-2-2v-2zm8 0s0-2 2-2 2 2 2 2v2s0 2-2 2-2-2-2-2v-2z"/>
    </symbol>
    <symbol id="panda" viewBox="0 0 36 36">
        <circle fill="#272B2B" cx="7" cy="6" r="6"/>
        <circle fill="#272B2B" cx="29" cy="6" r="6"/>
        <circle fill="#66757F" cx="7" cy="6" r="4"/>
        <circle fill="#66757F" cx="29" cy="6" r="4"/>
        <path fill="#EEE" d="M35 22c0 7-6.375 12-17 12S1 29 1 22C1 22 2.308 0 18 0s17 22 17 22z"/>
        <circle fill="#CCD6DD" cx="18" cy="30" r="6"/>
        <circle fill="#DD2E44" cx="18" cy="30" r="4"/>
        <path fill="#272B2B"
              d="M20.709 12.654C25.163 9.878 32 17 26.952 22.67 23.463 26.591 20 25 20 25s-2.636-10.26.709-12.346zm-5.442.011C10.813 9.888 3.976 17.01 9.023 22.681c3.49 3.92 6.953 2.329 6.953 2.329s2.636-10.26-.709-12.345z"/>
        <path fill="#66757F" d="M11 17s0-2 2-2 2 2 2 2v2s0 2-2 2-2-2-2-2v-2z"/>
        <path fill="#FFF"
              d="M18 20S7 23.687 7 27s2.687 6 6 6c2.088 0 3.925-1.067 5-2.685C19.074 31.933 20.912 33 23 33c3.313 0 6-2.687 6-6s-11-7-11-7z"/>
        <path fill="#66757F" d="M21 17s0-2 2-2 2 2 2 2v2s0 2-2 2-2-2-2-2v-2z"/>
        <path fill="#272B2B" d="M13.125 25c-1.624 1 3.25 4 4.875 4s6.499-3 4.874-4-8.124-1-9.749 0z"/>
    </symbol>
    <symbol id="pig" viewBox="0 0 36 36">
        <path fill="#F4ABBA"
              d="M34.193 13.329c.387-.371.733-.795 1.019-1.28 1.686-2.854.27-10.292-.592-10.8-.695-.411-5.529 1.05-8.246 3.132C23.876 2.884 21.031 2 18 2c-3.021 0-5.856.879-8.349 2.367C6.93 2.293 2.119.839 1.424 1.249c-.861.508-2.276 7.947-.592 10.8.278.471.615.884.989 1.249C.666 15.85 0 18.64 0 21.479 0 31.468 8.011 34 18 34s18-2.532 18-12.521c0-2.828-.66-5.606-1.807-8.15z"/>
        <path fill="#EA596E"
              d="M7.398 5.965c-2.166-1.267-4.402-2.08-4.8-1.845-.57.337-1.083 4.998-.352 8.265 1.273-2.483 3.04-4.682 5.152-6.42zm26.355 6.419c.733-3.267.219-7.928-.351-8.265-.398-.235-2.635.578-4.801 1.845 2.114 1.739 3.88 3.938 5.152 6.42zM28 23.125c0 4.487-3.097 9.375-10 9.375-6.904 0-10-4.888-10-9.375S11.096 17.5 18 17.5c6.903 0 10 1.138 10 5.625z"/>
        <path fill="#662113"
              d="M15 24.6c0 1.857-.34 2.4-1.5 2.4s-1.5-.543-1.5-2.4c0-1.856.34-2.399 1.5-2.399s1.5.542 1.5 2.399zm9 0c0 1.857-.34 2.4-1.5 2.4s-1.5-.543-1.5-2.4c0-1.856.34-2.399 1.5-2.399s1.5.542 1.5 2.399z"/>
        <circle fill="#292F33" cx="7" cy="17" r="2"/>
        <circle fill="#292F33" cx="29" cy="17" r="2"/>
    </symbol>
    <symbol id="poop" viewBox="0 0 36 36">
        <path fill="#BF6952"
              d="M33.541 23.198c.364-1.578.243-3.266-.458-4.946-.678-1.625-1.847-2.91-3.271-3.773.318-1.192.234-2.475-.324-3.75-.841-1.92-2.66-3.201-4.712-3.562.249-.572.329-1.289.036-2.167-1-3-5-1-8-4.999-2.44 1.464-2.97 3.64-2.878 5.487-2.421.412-3.8.936-3.8.936v.002c-1.36.55-2.322 1.883-2.322 3.442 0 .879.318 1.676.828 2.312l-.692.258.001.003c-2.33.871-3.975 2.976-3.975 5.439 0 1.047.3 2.027.82 2.878C1.971 22.027 0 24.781 0 28c0 4.418 3.691 8 8.244 8 3.269 0 6.559-.703 9.531-1.665C20.018 35.375 23.47 36 28.667 36 32.717 36 36 32.717 36 28.667c0-2.176-.953-4.125-2.459-5.469z"/>
        <ellipse fill="#F5F8FA" cx="13.5" cy="15.5" rx="3.5" ry="4.5"/>
        <ellipse fill="#F5F8FA" cx="23.5" cy="15.5" rx="3.5" ry="4.5"/>
        <ellipse fill="#292F33" cx="14" cy="15.5" rx="2" ry="2.5"/>
        <ellipse fill="#292F33" cx="23" cy="15.5" rx="2" ry="2.5"/>
        <path fill="#292F33"
              d="M9.447 24.895C9.201 24.402 9.45 24 10 24h18c.55 0 .799.402.553.895C28.553 24.895 26 30 19 30s-9.553-5.105-9.553-5.105z"/>
        <path fill="#F2ABBA"
              d="M19 26c-2.771 0-5.157.922-6.292 2.256C14.2 29.211 16.253 30 19 30s4.801-.789 6.292-1.744C24.157 26.922 21.771 26 19 26z"/>
    </symbol>
    <symbol id="rabbit" viewBox="0 0 36 36">
        <path fill="#99AAB5"
              d="M33.799.005c-.467-.178-7.998 3.971-9.969 9.131-1.166 3.052-1.686 6.058-1.652 8.112C20.709 16.459 19.257 16 18 16s-2.709.458-4.178 1.249c.033-2.055-.486-5.061-1.652-8.112C10.2 3.977 2.668-.173 2.201.005c-.455.174 4.268 16.044 7.025 20.838C6.805 23.405 5 26.661 5 29.828c0 3.234 1.635 5.14 4 5.94 2.531.857 5-.94 9-.94s6.469 1.798 9 .94c2.365-.801 4-2.706 4-5.94 0-3.166-1.805-6.423-4.225-8.984C29.53 16.049 34.255.179 33.799.005z"/>
        <path fill="#F4ABBA"
              d="M12.692 17.922c-.178-1.54-.68-3.55-1.457-5.584-1.534-4.016-5.686-7.245-6.049-7.107-.319.122 2.627 10.14 4.783 14.863.866-.824 1.786-1.563 2.723-2.172zm13.338 2.172c2.156-4.723 5.102-14.741 4.784-14.862-.363-.139-4.516 3.091-6.05 7.107-.777 2.034-1.279 4.043-1.457 5.583.937.609 1.857 1.348 2.723 2.172z"/>
        <path fill="#CCD6DD"
              d="M25 30c0 2.762-3.06 5-6.834 5-3.773 0-6.833-2.238-6.833-5s3.06-5 6.833-5C21.94 25 25 27.238 25 30z"/>
        <path fill="#FFF" d="M21 30.578c0 2.762-.238 3-3 3-2.761 0-3-.238-3-3 0-1 6-1 6 0z"/>
        <circle fill="#292F33" cx="12.5" cy="24.328" r="1.5"/>
        <circle fill="#292F33" cx="23.5" cy="24.328" r="1.5"/>
        <path fill="#F4ABBA" d="M21 25.828c0 1.657-2 3-3 3s-3-1.343-3-3 6-1.657 6 0z"/>
    </symbol>
    <symbol id="raccoon" viewBox="0 0 36 36">
        <path fill="#99AAB5"
              d="M10.668 5.616C9.032 2.479 4.439 1.005 3.584 2.298s.707 10.152 1.757 9.967c1.051-.185 5.327-6.649 5.327-6.649z"/>
        <path fill="#292F33"
              d="M9.841 7.674c-1.27-2.68-4.696-4.82-5.304-3.745-.435.771.122 5.263.757 7.696l4.547-3.951z"/>
        <path fill="#99AAB5"
              d="M25.284 5.616c1.636-3.137 6.228-4.611 7.084-3.318s-.708 10.152-1.758 9.967c-1.051-.185-5.326-6.649-5.326-6.649z"/>
        <path fill="#292F33"
              d="M26.36 7.674c1.231-2.686 4.501-4.854 5.07-3.786.416.78-.178 5.425-.815 7.825L26.36 7.674z"/>
        <path fill="#99AAB5"
              d="M33.13 13.316c-2.583-3.164-9.048-11.601-15.155-11.601S5.404 10.152 2.821 13.316C-.317 17.16-.23 21.613.573 24.193c.805 2.587 3.155 5.038 9.261 7.431 2.065.809 5.705 2.393 8.142 2.393s6.076-1.583 8.142-2.393c6.106-2.393 8.457-4.843 9.261-7.431.802-2.58.89-7.033-2.249-10.877z"/>
        <path fill="#E1E8ED"
              d="M17.976 14.408c0-4.913-4.078-4.855-6.542-4.572C6.922 10.353.076 16.597.076 20.569c0 1.39.16 2.631.496 3.624.584 1.726 1.875 3.015 5.034 5.266 3.49-8.351 12.37-11.246 12.37-15.051z"/>
        <path fill="#292F33"
              d="M17.976 15.777c0-2.399-4.389-3.04-6.649-2.678C6.443 13.882.587 20.633.572 24.07v.013c.002.006.001.111.001.111s.384 1.401 1.623 2.815c.867.991 2.346 2.068 3.333 2.584l.01-.011c2.952-3.861 6.877-6.416 10.022-7.617 1.763-.673 2.415-3.5 2.415-6.188z"/>
        <circle fill="#99AAB5" cx="13.396" cy="17.489" r="1.527"/>
        <path fill="#E1E8ED"
              d="M17.976 14.408c0-4.913 4.078-4.855 6.542-4.572 4.511.518 11.357 6.762 11.357 10.734 0 1.39-.16 2.631-.496 3.624-.584 1.726-1.875 3.015-5.034 5.266-3.489-8.352-12.369-11.247-12.369-15.052z"/>
        <path fill="#292F33"
              d="M17.976 15.777c0-2.399 4.389-3.04 6.649-2.678 4.884.783 10.74 7.534 10.755 10.971v.013c-.002.006-.001.111-.001.111s-.384 1.401-1.623 2.815c-.868.991-2.347 2.068-3.333 2.584l-.01-.011c-2.952-3.861-6.877-6.416-10.022-7.617-1.763-.673-2.415-3.5-2.415-6.188z"/>
        <circle fill="#99AAB5" cx="22.555" cy="17.489" r="1.527"/>
        <path fill="#66757F"
              d="M20.746 22.102c-.923-1.073-1.75-19.035-2.77-19.035s-1.847 17.962-2.77 19.035h5.54z"/>
        <path fill="#E1E8ED"
              d="M24.915 24.184c-1.636-2.06-4.164-3.705-6.94-3.705s-5.304 1.646-6.94 3.705c-1.388 1.748-1.388 3.061-.925 4.226.482 1.214 1.388 2.821 4.164 3.986.939.394 2.594 1.165 3.701 1.165 1.108 0 2.762-.771 3.701-1.165 2.776-1.165 3.682-2.772 4.164-3.986.463-1.165.463-2.478-.925-4.226z"/>
        <path fill="#292F33"
              d="M21.614 28.372c-.689-.562-1.629.184-3.639.184s-2.95-.746-3.639-.184c-.689.562.585 2.308 3.639 2.308s4.328-1.746 3.639-2.308z"/>
        <path fill="#66757F"
              d="M13.165 24.769c-.133 0-.268-.035-.391-.107-3.002-1.792-8.357-.913-9.664-.286-.378.184-.835.023-1.019-.357-.182-.381-.022-.837.358-1.019 1.744-.838 7.624-1.725 11.107.35.362.217.481.685.264 1.047-.142.239-.395.372-.655.372z"/>
        <path fill="#66757F"
              d="M2.141 29.702c-.168 0-.337-.056-.478-.169-.328-.264-.38-.744-.116-1.073 1.455-1.807 4.896-4.888 11.581-5.216.419-.035.779.304.8.725.021.421-.304.779-.725.8-6.089.299-9.171 3.041-10.467 4.649-.151.187-.372.284-.595.284zm31.669 0c-.223 0-.443-.097-.594-.284-1.295-1.608-4.377-4.35-10.467-4.649-.42-.021-.745-.379-.725-.8.021-.42.383-.763.8-.725 6.685.328 10.124 3.409 11.58 5.216.264.329.213.809-.115 1.073-.141.113-.31.169-.479.169z"/>
        <path fill="#66757F"
              d="M22.787 24.769c-.26 0-.514-.133-.657-.373-.216-.362-.097-.83.264-1.047 3.482-2.076 9.366-1.188 11.107-.35.381.182.541.638.358 1.018-.182.381-.636.544-1.018.358-1.31-.628-6.664-1.505-9.664.286-.123.074-.257.108-.39.108z"/>
        <path fill="#292F33"
              d="M21.614 22.244c0 1.765-2.539 3.223-3.639 3.223-1.1 0-3.639-1.458-3.639-3.223s1.629-1.81 3.639-1.81 3.639.045 3.639 1.81z"/>
    </symbol>
    <symbol id="rhinoceros" viewBox="0 0 36 36">
        <path fill="#66757F"
              d="M27.295 7.526c-1.152-3.054-2.65-6.8-8.299-6.915-1.759-.036-1.52.539-.347 1.02 2.248.922-2.474 5.438 4.759 7.4 5.648 1.531 5.039 1.549 3.887-1.505z"/>
        <path fill="#99AAB5"
              d="M36.004 3.903c-7.737 0-14.411 2.514-18.105 5.757-4.875 4.28-5.38 10.306-14.034 15.66-2.847 1.761-.423 7.517 1.153 9.618 1.908 2.544 28.617.238 30.987-8.777l-.001-22.258z"/>
        <path fill="#66757F"
              d="M8.676 29.652c1.011.507 1.787 1.051 1.318 1.986-.469.936-1.173.25-2.185-.257-1.012-.508-2.285-.018-1.816-.954.47-.935 1.672-1.281 2.683-.775zM34.202 6.326c.238-2.563-2.178-4.999-5.95-5.906-1.685-.406-3.281-.35-2.345.478 1.793 1.585-.082 4.006 1.274 7.124.728 1.674 3.238 3.753 4.719 3.82 1.056.048 2.054-2.847 2.302-5.516z"/>
        <path fill="#99AAB5"
              d="M33.247 6.326c.238-2.563-2.272-5.445-6.17-6.007-1.715-.247-2.287.087-1.351.914 1.793 1.585-.638 3.627.718 6.745.728 1.674 3.393 3.84 4.875 3.907 1.055.049 1.68-2.89 1.928-5.559z"/>
        <path fill="#CCD6DD"
              d="M2.639 26.898C.087 22.915-.988 14.927 1.147 9.301c.321-.845 1.083-1.071 1.179.13.181 2.282 2.417 6.833 7.966 10.968 1.241.924-5.713 9.527-7.653 6.499z"/>
        <path fill="#CCD6DD"
              d="M13.248 15.387c-2.048-.852-3.609-3.189-4.092-4.661-.577-1.758-2.152 3.927.852 8.892 1.207 1.993 4.653-3.644 3.24-4.231z"/>
        <circle fill="#292F33" cx="16.789" cy="21.006" r="2"/>
        <path fill="#E6AAAA"
              d="M30.293 9.41c1.331.105 1.954-1.737 1.216-4.69-.644-2.576-4.252-3.248-4.227-3.069.025.179 1.057 1.549.014 2.939-1.014 1.352 1.347 4.69 2.997 4.82z"/>
    </symbol>
    <symbol id="tiger" viewBox="0 0 36 36">
        <circle fill="#FFCC4D" cx="7" cy="6" r="6"/>
        <circle fill="#FFCC4D" cx="18" cy="30" r="6"/>
        <circle fill="#DD2E44" cx="18" cy="30" r="4"/>
        <circle fill="#FFCC4D" cx="29" cy="6" r="6"/>
        <circle fill="#E6AAAA" cx="7" cy="6" r="4"/>
        <circle fill="#E6AAAA" cx="29" cy="6" r="4"/>
        <path fill="#FFCC4D" d="M34 22c0 7-4.923 7-4.923 7H6.923S2 29 2 22C2 22 3.231 0 18 0c14.77 0 16 22 16 22z"/>
        <path fill="#272B2B"
              d="M11 17s0-2 2-2 2 2 2 2v2s0 2-2 2-2-2-2-2v-2zm10 0s0-2 2-2 2 2 2 2v2s0 2-2 2-2-2-2-2v-2z"/>
        <path fill="#FFF"
              d="M23.678 23c-2.402 0-4.501.953-5.678 2.378C16.823 23.953 14.723 23 12.321 23 2 23 2.043 23.421 2 26.182c-.087 5.61 6.63 6.9 10.321 6.818 2.401-.053 4.502-.989 5.679-2.397 1.177 1.408 3.276 2.345 5.678 2.397 3.691.082 10.409-1.208 10.321-6.818-.043-2.761 0-3.182-10.321-3.182z"/>
        <path fill="#272B2B"
              d="M33.66 25.242c.204.279.333.588.339.939.03 1.905-.745 3.303-1.915 4.327L26.999 31l6.661-5.758zM15 25c-1 1 2 4 3 4s4-3 3-4-5-1-6 0zM10 3c2.667 2 8 4 8 4s5.333-2 8-4l-8 1-8-1zm8-1s1.652-.62 3.576-1.514C20.48.178 19.295 0 18 0s-2.481.178-3.576.486C16.348 1.38 18 2 18 2zm-7 7c3 2 7 4 7 4s4-2 7-4l-7 1-7-1zm20.645 2.285L27 15l6.006.75c-.334-1.401-.777-2.928-1.361-4.465zm1.911 7.159L28 24h5.835c.102-.595.165-1.251.165-2 0 0-.081-1.43-.444-3.556zm-31.112 0C2.082 20.57 2 22 2 22c0 .748.063 1.405.165 2H8l-5.556-5.556zm-.105 6.798c-.204.279-.333.588-.339.94-.03 1.905.745 3.303 1.916 4.327L9 31l-6.661-5.758zM9 15l-4.644-3.715c-.584 1.537-1.028 3.064-1.361 4.466L9 15z"/>
    </symbol>
    <symbol id="unicorn" viewBox="0 0 36 36">
        <path fill="#C1CDD5"
              d="M36 19.854C33.518 9.923 25.006 1.909 16.031 6.832c0 0-4.522-1.496-5.174-1.948-.635-.44-1.635-.904-.912.436.423.782.875 1.672 2.403 3.317C8 12.958 9.279 18.262 7.743 21.75c-1.304 2.962-2.577 4.733-1.31 6.976 1.317 2.33 4.729 3.462 7.018 1.06 1.244-1.307.471-1.937 3.132-4.202 2.723-.543 4.394-1.791 4.394-4.375 0 0 .795-.382 1.826 6.009.456 2.818-.157 5.632-.039 8.783H36V19.854z"/>
        <path fill="#60379A"
              d="M31.906 6.062c.531 1.312.848 3.71.595 5.318-.15-3.923-3.188-6.581-4.376-7.193-2.202-1.137-4.372-.979-6.799-.772.111.168.403.814.32 1.547-.479-.875-1.604-1.42-2.333-1.271-1.36.277-2.561.677-3.475 1.156-.504.102-1.249.413-2.372 1.101-1.911 1.171-4.175 4.338-6.737 3.511 1.042 2.5 3.631 1.845 3.631 1.845 1.207-1.95 4.067-3.779 6.168-4.452 7.619-1.745 12.614 3.439 15.431 9.398.768 1.625 2.611 7.132 4.041 10.292V10.956c-.749-1.038-1.281-3.018-4.094-4.894z"/>
        <path fill="#C1CDD5"
              d="M13.789 3.662c.573.788 3.236.794 4.596 3.82 1.359 3.026-1.943 2.63-3.14 1.23-1.334-1.561-1.931-2.863-2.165-3.992-.124-.596-.451-2.649.709-1.058z"/>
        <path fill="#758795"
              d="M14.209 4.962c.956.573 2.164 1.515 2.517 2.596.351 1.081-.707.891-1.349-.042-.641-.934-.94-1.975-1.285-2.263-.346-.289.117-.291.117-.291z"/>
        <circle fill="#292F33" cx="15.255" cy="14.565" r=".946"/>
        <path fill="#53626C"
              d="M8.63 26.877c.119.658-.181 1.263-.67 1.351-.49.089-.984-.372-1.104-1.03-.119-.659.182-1.265.671-1.354.49-.088.984.373 1.103 1.033z"/>
        <path fill="#EE7C0E"
              d="M13.844 8.124l.003-.002-.005-.007-.016-.014c-.008-.007-.011-.019-.019-.025-.009-.007-.021-.011-.031-.018C12.621 7.078.933-.495.219.219-.51.948 10.443 9.742 11.149 10.28l.011.006.541.439c.008.007.01.018.018.024.013.01.028.015.042.024l.047.038-.009-.016c.565.361 1.427.114 1.979-.592.559-.715.577-1.625.066-2.079z"/>
        <path fill="#C43512"
              d="M4.677 2.25l.009-.025c-.301-.174-.594-.341-.878-.5-.016.038-.022.069-.041.11-.112.243-.256.484-.429.716-.166.224-.349.424-.541.595-.02.018-.036.026-.056.043.238.22.489.446.745.676.234-.21.456-.449.654-.717.214-.287.395-.589.537-.898zm2.275 2.945c.306-.41.521-.822.66-1.212-.292-.181-.584-.36-.876-.538-.076.298-.247.699-.586 1.152-.31.417-.613.681-.864.845.259.223.52.445.779.665.314-.244.619-.552.887-.912zM9.87 7.32c.365-.49.609-.983.734-1.437l-.906-.586c-.023.296-.172.81-.631 1.425-.412.554-.821.847-1.1.978l.814.671c.381-.256.761-.611 1.089-1.051z"/>
    </symbol>
    <symbol id="wolf" viewBox="0 0 36 36">
        <path fill="#66757F"
              d="M14.858 9.497c.475 2.326-.182 4.236-2.921 4.638-2.741.403-6.7 3.898-8.848-1.798C1.844 9.038 1.092 2.234 2.628 2.009c1.537-.226 11.756 5.162 12.23 7.488z"/>
        <path fill="#CCD6DD"
              d="M12.784 9.851c.865 1.392-2.205 3.833-3.844 4.568-1.639.736-2.915-.66-4.173-4.1-.55-1.503-1.234-5.532-.634-5.802.599-.268 7.785 3.942 8.651 5.334z"/>
        <path fill="#66757F"
              d="M21.372 9.497c-.458 2.326.176 4.236 2.818 4.638 2.644.403 6.464 3.898 8.536-1.798 1.201-3.3 1.927-10.103.445-10.329-1.483-.225-11.342 5.163-11.799 7.489z"/>
        <path fill="#CCD6DD"
              d="M23.373 9.851c-.835 1.392 2.127 3.833 3.708 4.568 1.581.736 2.812-.66 4.026-4.1.531-1.503 1.19-5.532.611-5.802-.577-.268-7.509 3.942-8.345 5.334z"/>
        <path fill="#66757F"
              d="M32.347 26.912c0-.454-.188-1.091-.407-1.687.585.028 1.519.191 2.77.817-.008-.536-.118-.984-.273-1.393.041.02.075.034.116.055-1.104-3.31-3.309-5.517-3.309-5.517h2.206c-2.331-4.663-4.965-8.015-8.075-9.559-1.39-.873-3.688-1.338-7.373-1.339h-.003c-3.696 0-5.996.468-7.385 1.346-3.104 1.547-5.734 4.896-8.061 9.552H4.76s-2.207 2.206-3.311 5.517l.084-.039c-.201.392-.307.847-.282 1.377 1.263-.632 2.217-.792 2.813-.818-.189.513-.343 1.044-.386 1.475-.123.371-.191.812-.135 1.343 3.207-1.458 4.707-1.25 6.457-.375C11.213 31.29 14.206 34 18.001 34c3.793 0 6.746-2.794 7.958-6.416 1.458-1.25 3.708-.875 6.416.416.066-.413.036-.773-.036-1.093l.008.005z"/>
        <path fill="#CCD6DD"
              d="M34.553 24.704c-.437-1.313-3.665-3.101-6.973-4.513.26-.664.42-1.401.42-2.191 0-2.761-1.791-5-4-5s-4 2.239-4 5c0 3 4 10-2.001 11.118-5.125-.955-2.954-6.201-2.212-9.58.072-.276.125-.559.158-.853.034-.245.055-.476.055-.685 0-2.761-1.791-5-4-5s-4 2.239-4 5c0 .79.16 1.527.421 2.191-3.308 1.412-6.535 3.2-6.973 4.513C3.655 23.6 4.759 23.6 4.759 23.6s-1.104 2.208-1.104 3.312c2.67-1.78 5.339-2.122 7.429-.452C12.297 30.083 14 33 18.001 30.124c3.999 2.876 5.7-.04 6.912-3.662 2.092-1.673 4.763-1.33 7.434.45 0-1.104-1.103-3.312-1.103-3.312s1.103.001 3.309 1.104z"/>
        <path fill="#292F33"
              d="M11 17s0-1.5 1.5-1.5S14 17 14 17v1.5s0 1.5-1.5 1.5-1.5-1.5-1.5-1.5V17zm11 0s0-1.5 1.5-1.5S25 17 25 17v1.5s0 1.5-1.5 1.5-1.5-1.5-1.5-1.5V17zm-7.061 9.156c-1.021.208 2.041 3.968 3.062 3.968 1.02 0 4.082-3.76 3.062-3.968s-5.103-.208-6.124 0z"/>
    </symbol>
    <symbol id="zebra" viewBox="0 0 36 36">
        <path fill="#E1E8ED"
              d="M23.283 23.275s1.374 1.635 2.733 10.047c.143.883.201 1.775.217 2.678H36V7.448C31.613 3.975 25.601 3.259 18.322 5.69c0 0-5.408-3-6.147-3.739-.719-.72-1.857-1.556-1.235.35.364 1.112.764 2.373 2.358 4.862-3.436 2.036-4.513 4.68-8.558 13.341C1.652 27.12.08 29.269.937 31.797c1.13 3.337 5.316 5.595 8.844 3.021 1.919-1.4 2.246-3.913 6.225-6.223 3.653-.065 7.277-1.604 7.277-5.32z"/>
        <path fill="#292F33"
              d="M36 6.012C27.665.301 14.354 1.473 15.909 6.19 25.51 4.328 31.77 7.731 36 13.358V6.012z"/>
        <path fill="#292F33"
              d="M19.663 5.763c-2.878.233-7.28 1.765-9.42 4.137 0 0-.005-5.317 3.689-5.784 6.172-.779 5.809.363 5.809.363l-.078 1.284z"/>
        <path fill="#E1E8ED"
              d="M16.357 1.056c.558 1.155 4.006 1.79 5.056 6.029 1.051 4.24-3.134 2.951-4.356.855-1.361-2.334-1.828-4.162-1.867-5.679-.021-.801.039-3.538 1.167-1.205z"/>
        <path fill="#66757F"
              d="M16.596 2.838c1.103.968 2.448 2.472 2.65 3.955.202 1.483-1.125.988-1.736-.372-.612-1.359-.753-2.779-1.134-3.233-.38-.454.22-.35.22-.35z"/>
        <path fill="#292F33"
              d="M16.94 15.525c0 .687-.557 1.244-1.245 1.244-.687 0-1.244-.557-1.244-1.244 0-.688.557-1.245 1.244-1.245.688.001 1.245.558 1.245 1.245z"/>
        <path fill="#E1E8ED"
              d="M10.354 9.924c-.033-.017-.075-.014-.111-.024-1.543 2.033-2.92 5.102-5.49 10.604-1.356 2.903-2.42 4.946-3.116 6.538 1.628.226 3.285-1.442 3.945-3.271.673-1.866 3.215-5.652 4.927-7.778 1.712-2.127 1.561-5.144-.155-6.069z"/>
        <path fill="#292F33"
              d="M28.188 6.312s-2.296 6.947-2.302 8.947c-.011 3.803-2.687 7.801-2.687 7.801l1.342 3.422s3.25-3.04 3.938-10.228c.571-5.973 2.566-7.667 2.566-7.667l-2.857-2.275zm5.874 3.126S31.056 13.073 30 19c-1.438 8.062-4.857 9.746-4.857 9.746l.482 2.441s5.281-3.056 6.632-9.115C33.875 14.812 36 13.358 36 13.358l-1.938-3.92zm-30.812 14c.688-.714 3.017 3.808 4.53 4.884 1.589 1.13 5.469.935 5.701 2.162-1.668 1.704-2.763 4.273-4.84 4.988-2.078.716-5.71.677-7.238-2.647-1.528-3.325-.403-4.7.222-6.137s1.458-2.938 1.625-3.25z"/>
        <path fill="#66757F"
              d="M4.222 29.917c0 .881-.532 1.594-1.187 1.594s-1.187-.713-1.187-1.594c0-.882.532-1.596 1.187-1.596s1.187.714 1.187 1.596z"/>
        <path fill="#292F33"
              d="M25.954 32.945s4.608-1.57 6.108-3.383S36 24 36 24v6.375S34.812 32 32.312 33.313c-1.586.832-6.092 2.251-6.092 2.251l-.266-2.619zM25.01 6.08S24.063 9 23.813 12s-1.125 4.875-1.938 6.188c.312-4.25-.688-5.875-.125-8.125s.87-4.32.87-4.32.63-.368 1.255-.305 1.135.642 1.135.642zM4.753 20.504s3.934-.379 5.747.871 5.332 7.323 5.332 7.323l-1.134.753s-1.697-4.639-4.76-6.076-6-1.188-6-1.188l.815-1.683z"/>
        <path fill="#292F33"
              d="M5.605 18.678s5.516-.358 6.958 1.509c2.75 3.562 3.831 5.01 4.447 8.349l1.785-.307c-.794-2.917-2.607-8.104-5.919-10.292s-6.25-1.688-6.25-1.688l-1.021 2.429zm12.27-5.99c-.625.688 2 3.312 1.125 5.5s-.375 5.25.125 6.625 1.26 2.839 1.26 2.839l1.622-1.146S21.75 25 21 22.813s-.688-2.25-.375-4.438S18.5 12 17.875 12.688zm-2.83-5.859s1.142 2.046 1.08 3.046-.062 2.688-.625 3.062-.812-2-1.188-3.062-1.064-2.258-1.064-2.258 1.469-1.428 1.797-.788zm-3.544 1.79s1.793 1.398 1.73 2.398 1.144 2.607.581 2.982-1.938-1.25-2.312-2.312S10.243 9.9 10.243 9.9s.929-1.921 1.258-1.281zm-2.563 3.193s1.522.981 1.938 1.75c.415.768 2.11 1.387 1.938 1.875-.173.488-1.977-.098-2.688-.75-.711-.652-2.345-.579-2.345-.579l1.157-2.296z"/>
    </symbol>
</svg>